<svg xmlns="http://www.w3.org/2000/svg" viewBox="0 0 122.3 64.4" fill="#fff"><path d="M19.9.8v12.6h4.7v7.7h12.5v-4.9h-9.7V7.4h9.7v-7h8.6v7h10.7v8.8H45.7v4.9h13.2V30H24.3v-8.6H20v9.4c1.2-.4 2.1-.9 2.7-1.2l1.6 9.3-4.2 1.7v23.5h-8.6v-20c-3.7 1.5-7 3-7.8 3.3l-2.2-9.6c1.3-.3 5.5-1.9 10-3.6V21.4h-2c-.4 4-.9 7.9-1.5 10.9l-8-1.6C1.5 23.9 2.7 15 3.2 6l7.4.6-.5 6.7h1.2V.8h8.6zm9.6 43.4h-3.3v-8.4h18.2v-4.5H53v4.5h5.2v8.4H53v11c0 7-2.1 9.2-9.6 9.2h-6.1l-1.6-8.2h5.5c2.7 0 3.1-1 3.1-4v-8.1h-9.6l5.8 6.7-6.3 5.7c-2.3-3-5.7-7.1-7.8-9.6l3.1-2.7zm37-32.7l6.6.7V.2h8.6v11.2l2.1-1.6 4 5.5c.9-3.9 1.6-7.8 2.2-11.6l8.5 1.2c-.4 2.7-.6 5.2-1.1 7.6h3.3V.5h9v11.9h11.6v9.4h-11.6V32h10.2v9h-10.2v12.2h12.7v9.3H85.6v-9.3h15V41H88.9v-9h2.3l-7.3-2.7c.9-2.4 1.7-5 2.4-7.8l-2.5 2-2.1-3v43.1h-8.6V21.5c-.7 6.2-1.6 13-2.2 16.4l-7.7-1.4c1.4-6.7 2.6-16.8 3.3-25zm26 20.5h8.1V21.8h-5.2c-.9 3.5-1.8 6.8-2.9 10.2z"/></svg>