<svg xmlns="http://www.w3.org/2000/svg" viewBox="0 0 36.5 62.7" fill="#fff"><path d="M24.8 28.7h-3.9v-13h10.4c1.4 0 2.6-1.2 2.6-2.6 0-1.4-1.2-2.6-2.6-2.6H20.9V2.6c0-1.4-1.2-2.6-2.6-2.6s-2.6 1.2-2.6 2.6v7.8h-3.9C5.2 10.4 0 15.7 0 22.2S5.2 34 11.7 34h3.9v13h-13C1.2 47 0 48.2 0 49.6c0 1.4 1.2 2.6 2.6 2.6h13V60c0 1.4 1.2 2.6 2.6 2.6s2.6-1.2 2.6-2.6v-7.8h3.9c6.5 0 11.8-5.3 11.8-11.8s-5.2-11.7-11.7-11.7zm-13.1 0c-3.6 0-6.5-2.9-6.5-6.5s2.9-6.5 6.5-6.5h3.9v13.1h-3.9zM24.8 47h-3.9V34h3.9c3.6 0 6.5 2.9 6.5 6.6 0 3.5-2.9 6.4-6.5 6.4z"/></svg>