<svg xmlns="http://www.w3.org/2000/svg" width="58.969" height="65.031"><path data-name="形状 7" d="M54.512 11.9L33.069.841a7.879 7.879 0 0 0-7.167 0L4.454 11.9a8.274 8.274 0 0 0-4.463 7.426v26.307a8.278 8.278 0 0 0 4.431 7.469l21.447 11.062a7.861 7.861 0 0 0 7.2 0l21.44-11.059a8.267 8.267 0 0 0 4.46-7.427V19.326a8.273 8.273 0 0 0-4.457-7.426zM28.288 5.789a2.615 2.615 0 0 1 2.38 0L50.281 15.9l-7.4 3.815-20.8-10.728zm1.192 20.84L8.68 15.902l7.41-3.822 20.8 10.728zM6.826 48.156a2.767 2.767 0 0 1-1.474-2.507V20.372L26.8 31.433V58.46zm45.288 0l-19.953 10.29V31.433l21.447-11.062v25.307a2.758 2.758 0 0 1-1.494 2.477z" fill="#fff" fill-rule="evenodd"/></svg>