<svg xmlns="http://www.w3.org/2000/svg" fill="#fff" viewBox="0 0 59 65"><path d="M54.5 11.9L33.1.8c-2.3-1.1-4.9-1.1-7.2 0L4.5 11.9C1.7 13.3 0 16.2 0 19.3v26.3c-.1 3.1 1.7 6 4.4 7.5l21.4 11.1c2.3 1.2 4.9 1.2 7.2 0l21.4-11.1c2.8-1.4 4.5-4.3 4.5-7.4V19.3c.1-3.1-1.6-6-4.4-7.4zM28.3 5.8c.7-.4 1.6-.4 2.4 0l19.6 10.1-7.4 3.8L22.1 9l6.2-3.2zm1.2 20.8L8.7 15.9l7.4-3.8 20.8 10.7-7.4 3.8zM6.8 48.2c-.9-.5-1.5-1.5-1.5-2.5V20.4l21.4 11.1v27L6.8 48.2zm45.3 0l-20 10.3v-27l21.4-11.1v25.3c.1 1-.5 2-1.4 2.5z"/></svg>