<svg xmlns="http://www.w3.org/2000/svg" width="52.5" height="52.75"><path data-name="形状 2" d="M45.336 23.984H7.164A7.184 7.184 0 0 1 .006 16.79V7.199A7.184 7.184 0 0 1 7.164.005h38.172a7.184 7.184 0 0 1 7.158 7.194v9.591a7.184 7.184 0 0 1-7.158 7.194zM7.164 4.801a2.4 2.4 0 0 0-2.386 2.4v9.591a2.4 2.4 0 0 0 2.386 2.4h38.172a2.394 2.394 0 0 0 2.386-2.4V7.201a2.394 2.394 0 0 0-2.386-2.4H7.164zm38.172 47.955H7.164a7.184 7.184 0 0 1-7.158-7.193v-9.592a7.184 7.184 0 0 1 7.158-7.194h38.172a7.184 7.184 0 0 1 7.158 7.194v9.592a7.184 7.184 0 0 1-7.158 7.193zM7.164 33.573a2.4 2.4 0 0 0-2.386 2.4v9.592a2.394 2.394 0 0 0 2.386 2.4h38.172a2.393 2.393 0 0 0 2.386-2.4v-9.592a2.393 2.393 0 0 0-2.386-2.4H7.164zm4.771-19.183a1.989 1.989 0 0 1-.907-.192 2.769 2.769 0 0 1-.786-.5 2.481 2.481 0 0 1-.692-1.7 2.424 2.424 0 0 1 .189-.912 2.391 2.391 0 0 1 3.89-.79 2.8 2.8 0 0 1 .5.79 2.025 2.025 0 0 1 .191.912 3.577 3.577 0 0 1-.048.479 1.554 1.554 0 0 1-.143.432 1.851 1.851 0 0 1-.215.432 2.058 2.058 0 0 1-.644.647 1.838 1.838 0 0 1-.429.216 1.524 1.524 0 0 1-.43.144 3.72 3.72 0 0 1-.476.044zm0 28.775a2.37 2.37 0 0 1-2.385-2.4 2.419 2.419 0 0 1 .189-.911 2.351 2.351 0 0 1 3.89-.792 2.791 2.791 0 0 1 .5.792 2.268 2.268 0 0 1 0 1.822 2.814 2.814 0 0 1-.5.791 2.361 2.361 0 0 1-1.694.7z" fill="#fff" fill-rule="evenodd"/></svg>