<svg xmlns="http://www.w3.org/2000/svg" viewBox="0 0 52.5 52.8" fill="#fff"><path d="M45.3 24H7.2c-4 0-7.2-3.2-7.2-7.2V7.2C0 3.2 3.2 0 7.2 0h38.2c4 0 7.2 3.2 7.2 7.2v9.6c-.1 3.9-3.3 7.2-7.3 7.2zM7.2 4.8c-1.3 0-2.4 1.1-2.4 2.4v9.6c0 1.3 1.1 2.4 2.4 2.4h38.2c1.3 0 2.4-1.1 2.4-2.4V7.2c0-1.3-1.1-2.4-2.4-2.4H7.2zm38.1 48H7.2c-4 0-7.2-3.2-7.2-7.2V36c0-4 3.2-7.2 7.2-7.2h38.2c4 0 7.2 3.2 7.2 7.2v9.6c-.1 3.9-3.3 7.1-7.3 7.2zM7.2 33.6c-1.3 0-2.4 1.1-2.4 2.4v9.6c0 1.3 1.1 2.4 2.4 2.4h38.2c1.3 0 2.4-1.1 2.4-2.4V36c0-1.3-1.1-2.4-2.4-2.4H7.2zm4.7-19.2c-.3 0-.6-.1-.9-.2-.3-.1-.6-.3-.8-.5-.4-.5-.7-1.1-.7-1.7 0-.3.1-.6.2-.9.5-1.2 1.9-1.8 3.1-1.3.3.1.5.3.8.5.2.2.4.5.5.8.1.3.2.6.2.9v.5c0 .2-.1.3-.1.4-.1.2-.1.3-.2.4-.2.3-.4.5-.6.6-.1.1-.3.2-.4.2-.1.1-.3.1-.4.1-.3.2-.5.2-.7.2zm0 28.8c-1.3 0-2.4-1-2.4-2.4 0-.3.1-.6.2-.9.5-1.2 1.8-1.8 3-1.4.3.1.6.3.9.6.2.2.4.5.5.8.3.6.3 1.2 0 1.8-.1.3-.3.6-.5.8-.4.4-1 .7-1.7.7z"/></svg>