<svg xmlns="http://www.w3.org/2000/svg" fill="#fff" viewBox="0 0 223.6 121.4"><path class="st0" d="M0 83.2l10.3 14.7C20.4 89.4 33 77.7 41 68.2l-9.3-9.6h13.7v28.9h7.2C40.1 94.1 24 99 2 103.3l6.1 18c45.1-9.6 68.2-22.8 90.5-50.7l-13-12.1h17.5V40.9h-41V29h33V12.5h-33V0H44v40.9H32.6V9.4h-18v31.4H.7v17.8h24.5C17.8 67.8 9.3 76 0 83.2zm63.4-2.4V58.6h21c-5.7 8.5-12.8 16-21 22.2zM157 62.6l.9 12.2c3.8-.3 8.2-.5 12.7-1.1-6 4.3-12.5 7.8-19.4 10.5l1.5-30h-4l3.1-49.7H117v15h20.2l-2 34.8h-4.1l1.9-32.5-13.5-.1-2.7 47h21.8l-.4 7c-4.9 1.1-19.8 3.6-23.2 4l1.2 14.7 21.2-3.8c-.1 2.4-.1 4.4-.1 5.4-.1 5.4-2 7-7.4 7h-9.3l3.1 14.2h11c9.7 0 14.2-3.1 15.5-11.5l4.9 10.7c8.8-4.3 17.1-9.8 24.5-16.2v17.9h14.2V96.4c5.9 7.7 13.2 14.1 21.6 19l7.6-13.5c-6.7-2.9-12.9-7.1-18.1-12.3 5-3.7 11-8.1 15-11.1l-7.8-10.3c-3.4 3.3-9.7 7.8-15.1 11.5-1.2-1.9-2.2-3.9-3.2-6v-2.5c6.6-.9 12.9-2 17.8-3.1l-2.1-12.2c-4 .8-8.5 1.6-13.1 2.4 2.9-3 5.7-6.2 8.4-9.6 3.3 4.2 6.4 8.4 8.6 11.7l10.3-8.6c-2.7-3.3-7.2-8.6-11.9-14.1 2.6-5.6 4.8-11.4 6.5-17.4V6.6h-27.5v13.7h4.6l-7.6 7.2 9 11.1c-2.3 3-4.9 5.9-7.7 8.5l-.1-5.4-2.1.3V14.6h1.9V2.1h-34.9v12.5h2.8v31c-1.6.1-2.9.4-3.6.4l.9 12.1c2.8-.3 12.3-1.5 21.1-2.5v3.3h11.8V54l2.4-.4v-1.2l5.2 6.1c-12.8 1.9-27 3.4-37.5 4.1zm22.6 10.2v17.4l-2.5-3.7c-8 6.9-17 12.5-26.7 16.6 0-.4.1-.8.1-1.3 0-1.7.4-8.1.8-15.4l4.6 10.7c8.9-4.5 18-10.3 23.6-15.5l-4.9-8.2c1.7-.2 3.3-.3 5-.6zm26.9-52.5c-.9 2.7-2 5.5-3.2 8.1l-7.4-8.1h10.6zm-38.2 7.3h6.8V31h-6.8v-3.4zm0-13h6.8v3.3h-6.8v-3.3zm0 29.6v-3.5h6.8v2.7l-6.8.8z"/></svg>