<svg xmlns="http://www.w3.org/2000/svg" viewBox="0 0 265.8 57.9" fill="#fff"><path class="st0" d="M12 36.6V38c0 5.6 2.7 8.4 6.4 8.4s6.8-2.4 6.8-8.5V0h12v38.5c0 13.9-8.5 19.4-18.7 19.4C8.1 57.9 0 51.8 0 38.7v-2.1h12zm50.9-22.9c13 0 18.7 10 18.7 21.8v5H55.7c0 3.5 3 7.1 7.8 7.1 3.6 0 5.5-1.3 7.1-3.7l10.7 1.7c-3.5 8.6-8.9 12.3-17.9 12.3-12.9 0-19.4-9.7-19.4-22.2.1-12 6-22 18.9-22zM69.8 31c0-2.6-2.1-7-7-7-5 0-7.1 4.2-7.1 7h14.1zm29.3-16.2v3.6c3-3 6.8-4.8 10.5-4.8 9.3 0 13.3 5.4 13.3 15.7v27.4h-11.7V31.9c0-5.1-1.9-7.9-5.3-7.9-2.5 0-4.8.9-6.8 3v29.7H87.5V14.8h11.6zM141.6 0v28.6l11.9-13.8h13.8l-15.7 18.1 16.7 23.8h-13.5L144 41.6l-2.4 2.8v12.3H130V0h11.6zm41.7 0v9.6h-11.7V0h11.7zm0 14.8v41.9h-11.7V14.8h11.7zm18.7 0v3.6c3-3 6.8-4.8 10.5-4.8 9.3 0 13.3 5.4 13.3 15.7v27.4h-11.7V31.9c0-5.1-1.9-7.9-5.3-7.9-2.5 0-4.8.9-6.8 3v29.7h-11.7V14.8H202zm39.5 29.3c1.7 3 4 4.2 7.3 4.2 3.2 0 4.8-1.5 4.8-3.4 0-2.3-3.1-3.5-7.1-4.8-10.1-3-14.6-6.8-14.6-13.7 0-7.3 6.8-12.7 16.6-12.7 8.4 0 13.9 3.7 16.8 11.1l-10.8 2c-1.4-2.6-3.3-3.5-6-3.5-2.9 0-5 1.5-5 3.5 0 2.3 2.2 3.3 5.5 4.2 12 3 16.8 6.7 16.8 13.9 0 8.1-6.7 13-17.4 13-6.4 0-14.4-3-17.9-11.3l11-2.5z"/></svg>