<svg xmlns="http://www.w3.org/2000/svg" width="63.125" height="52.75"><path data-name="形状 5" d="M34.193 31.637H13.147A13.186 13.186 0 0 0-.006 44.825v5.276a2.631 2.631 0 1 0 5.261 0v-5.276a7.911 7.911 0 0 1 7.892-7.913h21.046a7.911 7.911 0 0 1 7.892 7.913v5.276a2.631 2.631 0 1 0 5.261 0v-5.276a13.186 13.186 0 0 0-13.153-13.188zM23.67 26.362a13.189 13.189 0 1 0-13.154-13.188A13.186 13.186 0 0 0 23.67 26.362zm0-21.1a7.913 7.913 0 1 1-7.892 7.913 7.911 7.911 0 0 1 7.892-7.914zm29.6 26.8a2.636 2.636 0 0 0-1.315 5.1 7.913 7.913 0 0 1 5.919 7.655v5.276a2.631 2.631 0 1 0 5.261 0v-5.278a13.179 13.179 0 0 0-9.873-12.75zM42.742.407a2.637 2.637 0 0 0-1.305 5.111 7.918 7.918 0 0 1 0 15.331 2.638 2.638 0 0 0 .65 5.193 2.591 2.591 0 0 0 .655-.083A13.2 13.2 0 0 0 42.737.41z" fill="#fff" fill-rule="evenodd"/></svg>