<svg xmlns="http://www.w3.org/2000/svg" viewBox="0 0 63.1 52.8" fill="#fff"><path d="M34.2 31.6h-21C5.9 31.6 0 37.5 0 44.8v5.3c0 1.5 1.1 2.7 2.6 2.7s2.7-1.1 2.7-2.6v-5.4c0-4.4 3.5-7.9 7.9-7.9h21c4.4 0 7.9 3.6 7.9 7.9v5.3c0 1.5 1.1 2.7 2.6 2.7s2.7-1.1 2.7-2.6v-5.4c-.1-7.3-5.9-13.2-13.2-13.2zm-10.5-5.2c7.3 0 13.2-5.9 13.2-13.2C36.9 5.9 31 0 23.7 0c-7.3 0-13.2 5.9-13.2 13.2 0 7.2 5.9 13.1 13.2 13.2zm0-21.1c4.4 0 7.9 3.5 7.9 7.9s-3.5 7.9-7.9 7.9-7.9-3.5-7.9-7.9 3.5-7.9 7.9-7.9zm29.6 26.8c-1.4-.3-2.8.6-3.1 2-.3 1.3.5 2.7 1.8 3.1 3.5.9 5.9 4.1 5.9 7.7v5.3c0 1.5 1.1 2.7 2.6 2.7s2.7-1.1 2.7-2.6v-5.4c-.1-6.1-4.1-11.3-9.9-12.8zM42.7.4c-1.4-.4-2.8.5-3.2 1.9s.5 2.8 1.9 3.2c4.2 1.1 6.8 5.4 5.7 9.6-.7 2.8-2.9 5-5.7 5.7-1.4.4-2.3 1.8-1.9 3.2.3 1.2 1.3 2 2.5 2 .2 0 .4 0 .7-.1 7.1-1.8 11.3-9 9.4-16.1C51 5.2 47.4 1.6 42.7.4z"/></svg>